<svg width="17" height="16" viewBox="0 0 17 16" fill="none" xmlns="http://www.w3.org/2000/svg">
<path d="M0 1.33333C0 0.979711 0.105492 0.640573 0.293269 0.390525C0.481046 0.140476 0.735727 0 1.00128 0H15.0193C15.2848 0 15.5395 0.140476 15.7273 0.390525C15.915 0.640573 16.0205 0.979711 16.0205 1.33333C16.0205 1.68696 15.915 2.02609 15.7273 2.27614C15.5395 2.52619 15.2848 2.66667 15.0193 2.66667H1.00128C0.735727 2.66667 0.481046 2.52619 0.293269 2.27614C0.105492 2.02609 0 1.68696 0 1.33333ZM0 8C0 7.64638 0.105492 7.30724 0.293269 7.05719C0.481046 6.80714 0.735727 6.66667 1.00128 6.66667H15.0193C15.2848 6.66667 15.5395 6.80714 15.7273 7.05719C15.915 7.30724 16.0205 7.64638 16.0205 8C16.0205 8.35362 15.915 8.69276 15.7273 8.94281C15.5395 9.19286 15.2848 9.33333 15.0193 9.33333H1.00128C0.735727 9.33333 0.481046 9.19286 0.293269 8.94281C0.105492 8.69276 0 8.35362 0 8ZM0 14.6667C0 14.313 0.105492 13.9739 0.293269 13.7239C0.481046 13.4738 0.735727 13.3333 1.00128 13.3333H15.0193C15.2848 13.3333 15.5395 13.4738 15.7273 13.7239C15.915 13.9739 16.0205 14.313 16.0205 14.6667C16.0205 15.0203 15.915 15.3594 15.7273 15.6095C15.5395 15.8595 15.2848 16 15.0193 16H1.00128C0.735727 16 0.481046 15.8595 0.293269 15.6095C0.105492 15.3594 0 15.0203 0 14.6667Z" fill="#B0BABF"/>
</svg>
